<svg
 xmlns="http://www.w3.org/2000/svg"
 xmlns:xlink="http://www.w3.org/1999/xlink"
 width="482px" height="165px">
<path fill-rule="evenodd"  fill="rgb(255, 255, 255)"
 d="M478.086,114.121 C475.623,116.508 472.547,117.698 468.854,117.698 L459.160,117.698 L459.160,147.469 C459.160,151.471 457.811,154.818 455.121,157.508 C452.427,160.201 449.081,161.546 445.081,161.546 C441.233,161.546 438.002,160.201 435.388,157.508 C432.770,154.818 431.464,151.471 431.464,147.469 L431.464,117.698 L371.456,117.698 C368.070,117.698 364.914,116.353 361.993,113.659 C359.068,110.969 357.608,107.775 357.608,104.082 C357.608,100.700 358.762,97.620 361.070,94.851 L434.003,5.539 C436.924,1.846 440.772,-0.000 445.543,-0.000 C449.387,-0.000 452.618,1.349 455.237,4.039 C457.851,6.732 459.160,10.079 459.160,14.078 L459.160,92.312 L468.854,92.312 C472.547,92.312 475.623,93.545 478.086,96.005 C480.545,98.468 481.779,101.543 481.779,105.236 C481.779,108.777 480.545,111.737 478.086,114.121 ZM431.464,46.156 L394.074,92.312 L431.464,92.312 L431.464,46.156 ZM311.596,88.546 L300.485,88.546 C298.670,121.716 272.200,148.218 239.070,150.034 L239.070,161.366 C239.070,163.387 237.462,164.998 235.441,164.998 C233.421,164.998 231.812,163.387 231.812,161.366 L231.812,150.034 C198.888,148.218 172.418,121.716 170.603,88.752 L159.080,88.752 C157.059,88.752 155.451,87.142 155.451,85.120 C155.451,83.097 157.059,81.486 159.080,81.486 L170.603,81.486 C172.623,48.711 198.888,22.210 231.830,20.205 L231.830,8.875 C231.830,6.851 233.439,5.241 235.459,5.241 C237.480,5.241 239.089,6.851 239.089,8.875 L239.089,20.205 C272.013,22.021 298.689,48.729 300.503,81.692 L311.615,81.692 C313.635,81.692 315.263,82.891 315.225,84.914 C315.225,86.937 313.617,88.546 311.596,88.546 ZM281.516,81.899 L293.039,81.899 C291.206,52.963 267.972,29.907 239.089,28.091 L239.089,39.421 C239.089,41.445 237.480,43.055 235.459,43.055 C233.439,43.055 231.830,41.445 231.830,39.421 L231.830,28.091 C202.928,29.907 179.900,53.169 178.086,81.899 L189.198,81.899 C191.218,81.899 192.827,83.509 192.827,85.531 C192.827,87.555 191.218,89.165 189.198,89.165 L178.086,89.165 C180.106,117.895 203.134,140.951 231.830,142.972 L231.830,131.643 C231.830,129.620 233.439,128.008 235.459,128.008 C237.480,128.008 239.089,129.620 239.089,131.643 L239.089,142.972 C267.990,141.157 291.224,118.101 293.039,89.165 L281.516,89.165 C279.496,89.165 277.887,87.555 277.887,85.531 C277.887,83.509 279.496,81.899 281.516,81.899 ZM235.459,110.198 C221.729,110.198 210.617,99.073 210.617,85.325 C210.617,71.578 221.729,60.453 235.459,60.453 C249.191,60.453 260.508,71.578 260.508,85.325 C260.508,99.073 249.191,110.198 235.459,110.198 ZM235.459,67.721 C225.751,67.721 217.875,75.606 217.875,85.325 C217.875,95.047 225.770,102.931 235.459,102.931 C245.150,102.931 253.044,95.047 253.044,85.325 C253.044,75.606 245.150,67.721 235.459,67.721 ZM111.577,117.698 L101.883,117.698 L101.883,147.469 C101.883,151.471 100.534,154.818 97.844,157.508 C95.150,160.201 91.803,161.546 87.804,161.546 C83.956,161.546 80.725,160.201 78.110,157.508 C75.492,154.818 74.187,151.471 74.187,147.469 L74.187,117.698 L14.179,117.698 C10.792,117.698 7.637,116.353 4.716,113.659 C1.791,110.969 0.330,107.775 0.330,104.082 C0.330,100.700 1.484,97.620 3.792,94.851 L76.726,5.539 C79.647,1.846 83.495,-0.000 88.266,-0.000 C92.110,-0.000 95.341,1.349 97.959,4.039 C100.574,6.732 101.883,10.079 101.883,14.078 L101.883,92.312 L111.577,92.312 C115.269,92.312 118.345,93.545 120.809,96.005 C123.268,98.468 124.501,101.543 124.501,105.236 C124.501,108.777 123.268,111.737 120.809,114.121 C118.345,116.508 115.269,117.698 111.577,117.698 ZM74.187,46.156 L36.797,92.312 L74.187,92.312 L74.187,46.156 Z"/>
</svg>
